<svg id="f35c0d44-e73e-4e19-bdbc-9ca06ecc8fb5" xmlns="http://www.w3.org/2000/svg" viewBox="0 0 579.89 499.43"><defs><style>.cls-1{fill:#f0f0f0;}.cls-2{fill:#fff;}.cls-3{fill:#ffb8b8;}.cls-4{fill:#c60000;}.cls-5{fill:#2f2e41;}.cls-6{fill:#a0616a;}.cls-7{fill:#e4e4e4;}</style></defs><title>Expert</title><path class="cls-1" d="M348.72,399.05H122.22c-1.28,0-2.33-1.43-2.33-3.19V93.31c0-1.76,1-3.19,2.33-3.19h226.5c1.29,0,2.33,1.43,2.33,3.19V395.86C351.05,397.62,350,399.05,348.72,399.05Z" transform="translate(-119.89)"/><path class="cls-2" d="M324.1,117.81H146.84c-1.29,0-2.33,1.43-2.33,3.2v188.2c0,1.77,1,3.19,2.33,3.2H324.1c1.29,0,2.33-1.43,2.33-3.2V121C326.43,119.24,325.39,117.82,324.1,117.81Z" transform="translate(-119.89)"/><path class="cls-2" d="M314,349.34H157c-.72,0-1.3-.8-1.3-1.78v-9.94c0-1,.58-1.78,1.3-1.78H314c.72,0,1.3.8,1.3,1.78v9.94C315.29,348.54,314.71,349.34,314,349.34Z" transform="translate(-119.89)"/><path class="cls-2" d="M259.57,373.48H157c-.72,0-1.3-.79-1.3-1.77v-9.94c0-1,.58-1.78,1.3-1.78H259.57c.72,0,1.3.8,1.3,1.78v9.94C260.87,372.69,260.29,373.48,259.57,373.48Z" transform="translate(-119.89)"/><ellipse class="cls-3" cx="111.2" cy="214.46" rx="22.54" ry="30.88"/><polygon class="cls-4" points="144.18 312.41 94.21 312.41 95.84 262.07 96.23 261.51 101.84 253.39 119.68 253.39 126.29 262.17 126.83 262.88 140.91 281.37 144.18 312.41"/><path class="cls-5" d="M222.69,312.41h-37.8c-.1-11.37-.15-18.17-.15-18.17l2.19-1.82h0l24.09-20,5.06-11.26,0,.4,1.49,23.73S220.06,296.12,222.69,312.41Z" transform="translate(-119.89)"/><path class="cls-5" d="M286.23,312.41H246.18c.61-33.14-2.65-51.3-1-51.3l1,1.06L258,274.94l15.55,7.82h0l10.72,5.39,1.89.94v1.22C286.16,293.22,286.17,301.18,286.23,312.41Z" transform="translate(-119.89)"/><path class="cls-5" d="M209.77,224.12s1.92-4.61,1.47-20,16.66-6.69,31-8.15,11.26,25.69,11.26,25.69,1-1.61,3.24-14.72-2.8-26.18-2.8-26.18c-1.48-13.78-9.44-9.36-9.44-9.36,3.84,2,3.1,6.41,3.1,6.41-3.24-7.79-11.2-3.38-11.2-3.38-10.61-9.12-21.37,2.9-21.37,2.9-12.82,4-5.3,17.95-5.3,17.95C196.8,204.21,209.77,224.12,209.77,224.12Z" transform="translate(-119.89)"/><path class="cls-5" d="M189.93,312.41H174.4q.18-3.95,0-7.88c-.93-5.06,12.12-11.91,12.52-12.11h0l2.49,1.83Z" transform="translate(-119.89)"/><path class="cls-5" d="M289,312.41H272.72l-2-27.56,2.28-2.29.58.2h0c1.83.61,7.49,2.66,10.72,5.39a7.68,7.68,0,0,1,1.89,2.16,3.28,3.28,0,0,1,.44,1.88C286.52,293.22,287.47,300.81,289,312.41Z" transform="translate(-119.89)"/><path class="cls-1" d="M697.44,308.94H471c-1.29,0-2.33-1.44-2.33-3.2V3.2c0-1.77,1-3.2,2.33-3.2H697.44c1.29,0,2.34,1.43,2.34,3.2V305.74C699.78,307.5,698.73,308.93,697.44,308.94Z" transform="translate(-119.89)"/><path class="cls-2" d="M672.83,27.7H495.57c-1.29,0-2.33,1.43-2.34,3.19V219.1c0,1.76,1,3.19,2.34,3.19H672.83c1.28,0,2.33-1.43,2.33-3.19V30.89C675.16,29.13,674.11,27.7,672.83,27.7Z" transform="translate(-119.89)"/><path class="cls-2" d="M662.72,259.22h-157c-.71,0-1.29-.79-1.29-1.77V247.5c0-1,.58-1.77,1.29-1.77H662.72c.71,0,1.29.79,1.29,1.77v9.95C664,258.43,663.43,259.22,662.72,259.22Z" transform="translate(-119.89)"/><path class="cls-2" d="M608.3,283.37H505.67c-.71,0-1.29-.8-1.29-1.78v-9.94c0-1,.58-1.77,1.29-1.77H608.3c.71,0,1.29.79,1.29,1.77v9.94C609.59,282.57,609,283.37,608.3,283.37Z" transform="translate(-119.89)"/><path class="cls-4" d="M627.83,222.29c1-4.93,1.77-9.19,2.17-12.2a11.49,11.49,0,0,0,0-2.81c-1.49-14.55-28.45-26.85-31.91-28.37l-.84-12.67-33.93-5-4.3,16.21-12.18,6.25a5.79,5.79,0,0,0-1.25.88c-2.09,1.94-3.08,5.46-2.48,8.82l5.19,28.9Z" transform="translate(-119.89)"/><path class="cls-4" d="M557.47,222.29H531.14c.94-8,1.79-15.17,2.34-19.71,2-16.49,10.78-17.89,12.15-18h5.72Z" transform="translate(-119.89)"/><path class="cls-4" d="M627.83,222.29h6.38c-.56-7.11-2.36-11.89-4.17-15a15.14,15.14,0,0,0-4.57-5.21l-.48-.28-5.61,20.5Z" transform="translate(-119.89)"/><ellipse id="e1a103b7-8d34-421f-afc4-5b4214dc85b9" class="cls-6" cx="459.11" cy="119.73" rx="24.44" ry="33.48"/><path id="b2c74153-0538-46ec-992c-20d14033c946" class="cls-5" d="M562.6,103.41c2.53,4.11,6.81,5.26,10.76,5.73,8,1,19.68-.6,27.52-3.07.56,7.42-1,15.43,2.22,21.55a134.64,134.64,0,0,0,2.6-22.68,29.33,29.33,0,0,0-.92-9.72c-1-3-3.1-5.58-5.55-5.61A12.31,12.31,0,0,1,605.44,86l-7.76-5.35,2-2.8-14-1.18,4.07-3.54a64.83,64.83,0,0,0-18.49-.8c-2.86.29-5.85.84-8.17,3.12s-3.66,6.79-2.22,10.12c-3.67.83-6.76,4.19-8.18,8.89a32.26,32.26,0,0,0-.62,11.41,107.26,107.26,0,0,0,3.09,17.94" transform="translate(-119.89)"/><path class="cls-7" d="M527.39,499.43H300.89c-1.28,0-2.33-1.43-2.33-3.2V193.69c0-1.77,1.05-3.2,2.33-3.2h226.5c1.29,0,2.33,1.43,2.33,3.2V496.23C529.72,498,528.68,499.43,527.39,499.43Z" transform="translate(-119.89)"/><path class="cls-2" d="M502.77,218.19H325.51c-1.28,0-2.33,1.43-2.33,3.2v188.2c0,1.76,1.05,3.19,2.33,3.2H502.77c1.29,0,2.33-1.44,2.33-3.2V221.39C505.1,219.62,504.06,218.19,502.77,218.19Z" transform="translate(-119.89)"/><path class="cls-2" d="M492.67,449.72h-157c-.71,0-1.29-.8-1.29-1.78V438c0-1,.58-1.78,1.29-1.78H492.67c.71,0,1.29.8,1.29,1.78v9.94C494,448.92,493.38,449.71,492.67,449.72Z" transform="translate(-119.89)"/><path class="cls-2" d="M438.24,473.86H335.62c-.71,0-1.29-.79-1.29-1.77v-9.95c0-1,.58-1.77,1.29-1.77H438.24c.72,0,1.3.79,1.3,1.77v9.95C439.54,473.07,439,473.86,438.24,473.86Z" transform="translate(-119.89)"/><path class="cls-4" d="M431.58,412.79H395.91l2.22-45.73L411,371.13l12.52-6.6.33-.17h0a.06.06,0,0,1,0,0C424.08,365.48,428,387,431.58,412.79Z" transform="translate(-119.89)"/><polygon class="cls-5" points="333.19 374.53 329.86 412.79 299.79 412.79 303.63 364.54 303.67 364.07 303.96 364.36 303.99 364.39 311.41 371.81 333.19 374.53"/><path class="cls-5" d="M401.19,412.79H374.26l-.39-30.12,19.82-9,4.44-6.6S399.54,386.91,401.19,412.79Z" transform="translate(-119.89)"/><path class="cls-5" d="M466.05,412.79H443.73l1.43-27.41,7.92-10.85S459.35,392.54,466.05,412.79Z" transform="translate(-119.89)"/><path class="cls-5" d="M380.61,412.79H368.84c.05-8.78.08-14.85.08-16.56-.12-5.37,1.74-10.47,4.95-13.56l5.95,2.71Z" transform="translate(-119.89)"/><path class="cls-5" d="M378.77,320c0-15.13,5.88-29.12,15.38-36.83,9.92-8,21.9-7.88,32.85.4,7.8,5.9,14.14,20.74,14.14,33.08v36H378.77Z" transform="translate(-119.89)"/><ellipse class="cls-3" cx="288.83" cy="320.92" rx="22.53" ry="30.87"/><path class="cls-5" d="M385.23,321.21c-.17-.27-.57-.9,2.21-30.2l.09-.48h.25c14.08-9.49,28.37-9.73,42.48-.71a4,4,0,0,1,1.57,3.07c1.64,27.53,1.25,28.13,1.08,28.39a2.5,2.5,0,0,1-2,1.23h-6.25l-.13-.32c-1.07-2.73-2.25-5.39-3.52-7.95-.59,2.55-1.07,5.15-1.44,7.77l-.08.5H387.31A2.51,2.51,0,0,1,385.23,321.21Z" transform="translate(-119.89)"/></svg>