<svg id="Layer_1" data-name="Layer 1" xmlns="http://www.w3.org/2000/svg" viewBox="0 0 203.6 374.47"><defs><style>.cls-1{fill:#eaeaea;}</style></defs><title>footer_logo</title><path class="cls-1" d="M638.63,549.39a26.11,26.11,0,0,1-24.78,17.12H462.54a26.12,26.12,0,0,1-24.78-17.12,20.37,20.37,0,0,0,17,8.92H621.66A20.37,20.37,0,0,0,638.63,549.39Z" transform="translate(-436.4 -192.04)"/><path class="cls-1" d="M632.2,200.4h-41a6,6,0,0,0-6,6v9.06a7.84,7.84,0,0,1-7.84,7.84H499a7.83,7.83,0,0,1-7.84-7.84v-9.06a6,6,0,0,0-5.95-6h-41A24.82,24.82,0,0,1,462.54,192H613.85A24.82,24.82,0,0,1,632.2,200.4Z" transform="translate(-436.4 -192.04)"/><path class="cls-1" d="M640,365.7v26.83H611.06a7.52,7.52,0,0,1-7.45-7.56v-11.7a7.51,7.51,0,0,1,7.45-7.57Z" transform="translate(-436.4 -192.04)"/><rect class="cls-1" y="302.06" width="13.64" height="20.38"/><path class="cls-1" d="M459.77,407.6a55.92,55.92,0,0,0,6.17,41.9,54,54,0,0,0,46.74,26.81h44.84a13.42,13.42,0,0,0,1.81-26.69,12,12,0,0,0-1.81-.12H512.68a27.52,27.52,0,0,1-7.79-1.12,28.14,28.14,0,0,1-17-14,28.9,28.9,0,0,1,0-26.82,28,28,0,0,1,24.78-15.07H575a37.59,37.59,0,0,0,11.15,15.07,41.19,41.19,0,0,0,51.82,0c.7-.58,1.4-1.18,2.06-1.82V525.6a22.79,22.79,0,0,1-22.79,22.79h-158A22.78,22.78,0,0,1,436.4,525.6v-6.09H450v22.62a2.54,2.54,0,0,0,2.52,2.56h5.53a2.53,2.53,0,0,0,2.52-2.31c15.85-.92,29.2-10.67,34.59-24.16h62.32a54.22,54.22,0,0,0,44.65-23.6c.74-1.06,1.43-2.13,2.08-3.23a56,56,0,0,0,0-57,54.48,54.48,0,0,0-38.52-26.18,53,53,0,0,0-8.21-.64H512.68a13.43,13.43,0,0,0-1.83,26.7,13.72,13.72,0,0,0,1.83.12h44.84a27.26,27.26,0,0,1,7.76,1.11,28.2,28.2,0,0,1,17,14,28.88,28.88,0,0,1,0,26.81,28,28,0,0,1-24.77,15.08H495.2a37.55,37.55,0,0,0-11.13-15.08,40.55,40.55,0,0,0-23.46-9.09,2.53,2.53,0,0,0-2.52-2.3h-5.53a2.54,2.54,0,0,0-2.52,2.56V490.1H436.4v-263a31,31,0,0,1,5.83-18.33H477a5.33,5.33,0,0,1,5,5.6v7.47c0,5.84,4.27,10.59,9.52,10.59h93.53c5.26,0,9.53-4.75,9.53-10.59v-7.47a5.32,5.32,0,0,1,5-5.6h34.55A31.05,31.05,0,0,1,640,227.11V352.45a40.57,40.57,0,0,0-28-11c-16.92,0-31.37,10.06-37.06,24.23H512.68a54.35,54.35,0,0,0-46.74,26.83A55.6,55.6,0,0,0,459.77,407.6Z" transform="translate(-436.4 -192.04)"/></svg>