<?xml version="1.0" encoding="utf-8"?>
<!-- Generator: Adobe Illustrator 23.0.1, SVG Export Plug-In . SVG Version: 6.00 Build 0)  -->
<svg version="1.1" id="Layer_1" xmlns:serif="http://www.serif.com/"
	 xmlns="http://www.w3.org/2000/svg" xmlns:xlink="http://www.w3.org/1999/xlink" x="0px" y="0px" viewBox="0 0 1280 1024"
	 style="enable-background:new 0 0 1280 1024;" xml:space="preserve">
<style type="text/css">
	.st0{fill-rule:evenodd;clip-rule:evenodd;fill:#EAEAEA;}
</style>
<path class="st0" d="M1026.9,0c69,0,125.1,56.1,125.1,125.1v773.8c0,69-56.1,125.1-125.1,125.1H253.1c-69,0-125.1-56.1-125.1-125.1
	V125.1C128,56.1,184.1,0,253.1,0L1026.9,0L1026.9,0z M640,162c-95.1,0-107,0.4-144.3,2.1c-37.3,1.7-62.7,7.6-85,16.3
	c-23,8.9-42.5,20.9-62,40.4c-19.5,19.5-31.4,39-40.4,62c-8.7,22.3-14.6,47.7-16.3,85C290.4,405,290,416.9,290,512s0.4,107,2.1,144.3
	c1.7,37.3,7.6,62.7,16.3,85c8.9,23,20.9,42.5,40.4,62c19.5,19.5,39,31.4,62,40.4c22.3,8.7,47.7,14.6,85,16.3
	c37.3,1.7,49.3,2.1,144.3,2.1s107-0.4,144.3-2.1c37.3-1.7,62.7-7.6,85-16.3c23-8.9,42.5-20.9,62-40.4s31.4-39,40.4-62
	c8.7-22.3,14.6-47.7,16.3-85c1.7-37.3,2.1-49.3,2.1-144.3s-0.4-107-2.1-144.3c-1.7-37.3-7.6-62.7-16.3-85c-8.9-23-20.9-42.5-40.4-62
	c-19.5-19.5-39-31.4-62-40.4c-22.3-8.7-47.7-14.6-85-16.3C747,162.4,735.1,162,640,162L640,162z M640,225.1
	c93.5,0,104.5,0.4,141.4,2c34.1,1.6,52.7,7.3,65,12.1c16.3,6.4,28,13.9,40.2,26.2c12.2,12.2,19.8,23.9,26.2,40.2
	c4.8,12.3,10.5,30.9,12,65c1.7,36.9,2,48,2,141.4s-0.4,104.5-2,141.4c-1.6,34.1-7.3,52.7-12,65c-6.3,16.3-13.9,28-26.2,40.2
	c-12.2,12.2-23.9,19.8-40.2,26.2c-12.3,4.8-30.9,10.5-65,12c-36.9,1.7-48,2-141.4,2s-104.5-0.4-141.4-2c-34.1-1.6-52.7-7.3-65-12
	c-16.3-6.3-28-13.9-40.2-26.2c-12.2-12.2-19.8-23.9-26.2-40.2c-4.8-12.3-10.5-30.9-12.1-65c-1.7-36.9-2-48-2-141.4
	s0.4-104.5,2-141.4c1.6-34.1,7.3-52.7,12.1-65c6.3-16.3,13.9-28,26.2-40.2c12.2-12.2,23.9-19.8,40.2-26.2
	c12.3-4.8,30.9-10.5,65-12.1C535.5,225.4,546.5,225.1,640,225.1L640,225.1z M640,332.3c-99.3,0-179.7,80.5-179.7,179.7
	S540.7,691.7,640,691.7S819.7,611.3,819.7,512S739.3,332.3,640,332.3L640,332.3z M640,628.7c-64.4,0-116.7-52.2-116.7-116.7
	S575.6,395.3,640,395.3S756.7,447.6,756.7,512S704.4,628.7,640,628.7z M868.8,325.2c0,23.2-18.8,42-42,42c-23.2,0-42-18.8-42-42
	s18.8-42,42-42C850,283.2,868.8,302,868.8,325.2L868.8,325.2z"/>
</svg>
