<?xml version="1.0" encoding="utf-8"?>
<!-- Generator: Adobe Illustrator 23.0.1, SVG Export Plug-In . SVG Version: 6.00 Build 0)  -->
<svg version="1.1" id="Layer_1" xmlns:serif="http://www.serif.com/"
	 xmlns="http://www.w3.org/2000/svg" xmlns:xlink="http://www.w3.org/1999/xlink" x="0px" y="0px" viewBox="0 0 1280 1024"
	 style="enable-background:new 0 0 1280 1024;" xml:space="preserve">
<style type="text/css">
	.st0{fill-rule:evenodd;clip-rule:evenodd;fill:#EAEAEA;}
</style>
<path class="st0" d="M1026.9,0c69,0,125.1,56.1,125.1,125.1v773.8c0,69-56.1,125.1-125.1,125.1H253.1c-69,0-125.1-56.1-125.1-125.1
	V125.1C128,56.1,184.1,0,253.1,0L1026.9,0L1026.9,0z M985,351.3c-8.3-31-32.7-55.4-63.7-63.7c-56.2-15-281.3-15-281.3-15
	s-225.1,0-281.3,15c-31,8.3-55.4,32.7-63.7,63.7c-15,56.1-15,173.3-15,173.3s0,117.2,15,173.3c8.3,31,32.7,55.4,63.7,63.7
	c56.2,15,281.3,15,281.3,15s225.2,0,281.3-15c31-8.3,55.4-32.7,63.7-63.7c15-56.1,15-173.3,15-173.3S1000,407.4,985,351.3z
	 M568,632.6v-216l187.1,108L568,632.6L568,632.6z"/>
</svg>
