<?xml version="1.0" encoding="utf-8"?>
<!-- Generator: Adobe Illustrator 23.0.1, SVG Export Plug-In . SVG Version: 6.00 Build 0)  -->
<svg version="1.1" id="Layer_1" xmlns:serif="http://www.serif.com/"
	 xmlns="http://www.w3.org/2000/svg" xmlns:xlink="http://www.w3.org/1999/xlink" x="0px" y="0px" viewBox="0 0 1280 1024"
	 style="enable-background:new 0 0 1280 1024;" xml:space="preserve">
<style type="text/css">
	.st0{fill-rule:evenodd;clip-rule:evenodd;fill:#EAEAEA;}
</style>
<path class="st0" d="M1026.9,0c69,0,125.1,56.1,125.1,125.1v773.8c0,69-56.1,125.1-125.1,125.1H814V638.2h133.2l25.3-165.2H814
	V365.7c0-45.2,22.1-89.3,93.2-89.3h72.1V135.7c0,0-65.4-11.2-128-11.2c-130.6,0-215.9,79.1-215.9,222.4v125.9H490.2v165.2h145.1
	V1024H253.1c-69,0-125.1-56.1-125.1-125.1V125.1C128,56.1,184.1,0,253.1,0L1026.9,0L1026.9,0z"/>
</svg>
