<?xml version="1.0" encoding="utf-8"?>
<!-- Generator: Adobe Illustrator 23.0.1, SVG Export Plug-In . SVG Version: 6.00 Build 0)  -->
<svg version="1.1" id="Layer_1" xmlns="http://www.w3.org/2000/svg" xmlns:xlink="http://www.w3.org/1999/xlink" x="0px" y="0px"
	 viewBox="0 0 1107.7 380.7" style="enable-background:new 0 0 1107.7 380.7;" xml:space="preserve">
<style type="text/css">
	.st0{fill:#C60000;}
	.st1{fill:#2F2E41;}
</style>
<title>logo</title>
<polygon class="st0" points="87.4,282.2 74.7,282.2 74.7,240.7 74.9,239.8 "/>
<path class="st1" d="M1021.7,204.8V53.6c0-26.8-21.7-48.5-48.5-48.5H557.5c7,0.1,13.7,3.1,18.4,8.4h-41c-3.3,0-6,2.7-6,6v9.1
	c0,4.3-3.5,7.8-7.8,7.8h-78.4c-4.3,0-7.8-3.5-7.8-7.8c0,0,0,0,0,0v-9.1c0-3.3-2.7-6-6-6h-41c4.6-5.3,11.3-8.3,18.3-8.4H123.2
	c-26.8,0-48.5,21.7-48.5,48.5v154.6h11.4l39,120H99.8l-8.3-26.9H74.7v25.7c0,26.8,21.7,48.5,48.5,48.5h282.7
	c-11,0-20.7-6.8-24.5-17.1c3.8,5.6,10.2,9,17,8.9h166.9c6.8,0,13.1-3.3,17-8.9c-3.8,10.3-13.6,17.1-24.5,17.1h415.4
	c26.4,0,47.9-21.1,48.5-47.4h-20v-88.7h20.1v-10.1h-20.1v-24.5H1021.7z M165.8,328.4c-3.9,0.9-7.6,1.4-11,1.4
	c-6.9,0-12.2-2-15.9-6.1c-3.7-4-5.6-9.9-5.6-17.6V204.8h24.1v91.8c0,6.8,2.5,10.1,7.7,10.1c1.2,0,2.5-0.2,4-0.6c1.5-0.4,2.8-1,4-1.8
	l3.2,20.3C173.2,326.2,169.7,327.5,165.8,328.4z M216.2,328.4c-3.9,0.9-7.6,1.4-11,1.4c-6.9,0-12.2-2-16-6.1
	c-3.7-4-5.6-9.9-5.6-17.6V204.8h24.1v91.8c0,6.8,2.5,10.1,7.7,10.1c1.2,0,2.5-0.2,4-0.6c1.5-0.4,2.8-1,4-1.8l3.2,20.3
	C223.5,326.2,220.1,327.5,216.2,328.4z M311.5,301.4c-1.9,5.6-4.6,10.5-8.2,14.7c-3.6,4.2-8.1,7.6-13.3,10.1
	c-5.3,2.5-11.3,3.7-18,3.7c-6.7,0-12.7-1.2-18-3.7c-5.3-2.5-9.7-5.8-13.3-10.1c-3.6-4.2-6.4-9.1-8.2-14.7
	c-1.9-5.6-2.8-11.4-2.8-17.5c0-6.1,0.9-11.9,2.8-17.5c1.8-5.6,4.6-10.5,8.2-14.7c3.6-4.2,8-7.6,13.3-10.1c5.3-2.5,11.3-3.8,18-3.8
	c6.7,0,12.7,1.3,17.9,3.8c5.2,2.5,9.6,5.9,13.2,10.1c3.6,4.2,6.4,9.1,8.3,14.7c1.9,5.6,2.9,11.4,2.9,17.5
	C314.3,290,313.3,295.9,311.5,301.4z M380,307.7h13.6v20.4H380V307.7z M583.7,338.7c0,12.6-10.2,22.8-22.8,22.8h-158
	c-12.6,0-22.8-10.1-22.8-22.7v-6.2h13.6v22.6c0,1.4,1.1,2.5,2.5,2.6h5.5c1.3,0,2.4-1,2.5-2.3c15.8-0.9,29.2-10.7,34.6-24.2h62.3
	c17.9,0,34.6-8.8,44.7-23.6c0.7-1.1,1.4-2.1,2.1-3.2c10.4-17.6,10.4-39.4,0-57c-8.3-14.1-22.4-23.7-38.5-26.2
	c-2.7-0.4-5.5-0.6-8.2-0.6h-44.8c-7.4,0.1-13.3,6.2-13.2,13.7c0.1,6.5,4.9,12,11.4,13c0.6,0.1,1.2,0.1,1.8,0.1h44.8
	c2.6,0,5.2,0.4,7.8,1.1c7.3,2.2,13.5,7.2,17,14c4.4,8.4,4.4,18.4,0,26.8c-4.8,9.3-14.4,15.1-24.8,15.1h-62.3
	c-2.4-5.9-6.2-11.1-11.1-15.1c-6.7-5.4-14.9-8.6-23.5-9.1c-0.1-1.3-1.2-2.3-2.5-2.3h-5.5c-1.4,0-2.5,1.2-2.5,2.6v22.6H380v-263
	c-0.1-6.6,2-13,5.8-18.3h34.8c2.9,0.2,5.2,2.7,5,5.6v7.5c0,5.8,4.3,10.6,9.5,10.6h93.5c5.3,0,9.5-4.8,9.5-10.6v-7.5
	c-0.2-2.9,2.1-5.4,5-5.6h34.5c3.8,5.3,5.9,11.8,5.9,18.3v125.3c-7.6-7.1-17.6-11.1-28-11c-16.9,0-31.4,10.1-37.1,24.2h-62.3
	c-19.2,0-37,10.3-46.7,26.8c-2.8,4.7-4.9,9.8-6.2,15.1c-3.5,14.2-1.3,29.3,6.2,41.9c9.7,16.6,27.5,26.8,46.7,26.8h44.8
	c7.4-0.1,13.3-6.2,13.2-13.6c-0.1-6.6-4.9-12.1-11.4-13.1c-0.6-0.1-1.2-0.1-1.8-0.1h-44.8c-2.6,0-5.3-0.4-7.8-1.1
	c-7.3-2.2-13.5-7.2-17-14c-4.4-8.4-4.4-18.4,0-26.8c4.8-9.2,14.4-15,24.8-15.1h62.3c2.4,5.9,6.2,11.1,11.2,15.1
	c15.1,12.2,36.7,12.2,51.8,0c0.7-0.6,1.4-1.2,2.1-1.8V338.7z M583.6,178.8v26.8h-28.9c-4.1,0-7.5-3.4-7.5-7.6v-11.7
	c0-4.1,3.3-7.5,7.5-7.6H583.6z M671.7,288.2c-0.1,1.5-0.3,2.8-0.5,4h-58.4c0.4,6,2.3,10.5,5.8,13.6c3.5,3.1,7.4,4.7,11.8,4.7
	c3.5,0,6.9-1,10.2-2.9c3.3-1.9,5.4-4.5,6.5-7.8l20.5,6.4c-3.1,7-7.9,12.7-14.4,17.1c-6.5,4.4-14.3,6.6-23.5,6.6
	c-6.6,0-12.6-1.2-17.8-3.6c-5.3-2.4-9.7-5.7-13.4-9.9c-3.7-4.2-6.4-9-8.3-14.5c-1.9-5.5-2.9-11.2-2.9-17.2c0-6.4,1-12.5,2.9-18.2
	c1.9-5.7,4.7-10.7,8.3-15c3.6-4.3,8-7.7,13.3-10.1c5.3-2.5,11.3-3.7,18-3.7c6.7,0,12.7,1.2,17.9,3.7c5.2,2.5,9.6,5.8,13.2,10.1
	c3.6,4.2,6.3,9.1,8.2,14.6c1.9,5.5,2.8,11.3,2.8,17.4C671.8,285.2,671.7,286.7,671.7,288.2z M715,328.4c-3.9,0.9-7.6,1.4-11,1.4
	c-6.9,0-12.2-2-15.9-6.1c-3.7-4-5.6-9.9-5.6-17.6V204.8h24.1v91.8c0,6.8,2.6,10.1,7.7,10.1c1.2,0,2.5-0.2,4-0.6c1.5-0.4,2.8-1,4-1.8
	l3.2,20.3C722.3,326.2,718.9,327.5,715,328.4z M812.9,288.2c-0.1,1.5-0.3,2.8-0.5,4h-58.4c0.4,6,2.3,10.5,5.8,13.6
	c3.5,3.1,7.4,4.7,11.8,4.7c3.5,0,6.9-1,10.2-2.9c3.3-1.9,5.4-4.5,6.5-7.8l20.5,6.4c-3.1,7-7.9,12.7-14.4,17.1
	c-6.5,4.4-14.3,6.6-23.5,6.6c-6.6,0-12.6-1.2-17.8-3.6c-5.3-2.4-9.7-5.7-13.4-9.9c-3.7-4.2-6.5-9-8.4-14.5
	c-1.9-5.5-2.9-11.2-2.9-17.2c0-6.4,1-12.5,2.9-18.2c1.9-5.7,4.7-10.7,8.3-15c3.6-4.3,8-7.7,13.3-10.1c5.3-2.5,11.3-3.7,18-3.7
	c6.7,0,12.7,1.2,17.9,3.7c5.2,2.5,9.6,5.8,13.2,10.1c3.6,4.2,6.3,9.1,8.2,14.6c1.9,5.5,2.8,11.3,2.8,17.4
	C813,285.2,813,286.7,812.9,288.2z M877.1,328.2l-20.6-35.7l-8.4,9.8v25.9H824V204.8h24.1v71.5l26.6-36.8h25.6l-28.4,38.2l30.8,50.5
	H877.1z M985.7,328.2h-24.1v-49.9c0-5.9-1-10.1-2.9-12.8c-2-2.7-4.5-4-7.7-4c-1.7,0-3.4,0.4-5.1,1.2c-1.7,0.8-3.4,1.9-5,3.3
	c-1.6,1.4-3,3.1-4.3,5c-1.3,1.9-2.2,4-2.9,6.3v50.9h-24.1v-88.7h21.7v14.9c2.9-5.3,7-9.4,12.3-12.3c5.3-2.9,11.4-4.3,18.4-4.3
	c5.1,0,9.2,1,12.3,3.1c3.1,2.1,5.5,4.8,7.2,8.1c1.7,3.3,2.8,7,3.4,10.9c0.5,3.9,0.8,7.8,0.8,11.5V328.2z"/>
<path class="st0" d="M646.4,275.5h-34c0.5-5.5,2.3-10,5.3-13.3c3.1-3.3,6.9-5,11.7-5c4.6,0,8.5,1.6,11.6,4.9
	C644.1,265.4,645.9,269.9,646.4,275.5z"/>
<path class="st0" d="M787.6,275.5h-34c0.5-5.5,2.3-10,5.3-13.3s6.9-5,11.7-5c4.6,0,8.5,1.6,11.6,4.9
	C785.3,265.4,787.1,269.9,787.6,275.5z"/>
<path class="st0" d="M289.4,283.9c0,3.4-0.5,6.5-1.3,9.4c-0.9,2.9-2.1,5.3-3.7,7.4c-1.5,2-3.4,3.6-5.5,4.7c-2.1,1.1-4.4,1.7-6.9,1.7
	c-5.1,0-9.3-2.1-12.6-6.3c-3.3-4.2-5-9.8-5-16.8c0-3.4,0.5-6.5,1.4-9.4c0.9-2.9,2.1-5.3,3.7-7.4c1.6-2,3.4-3.6,5.6-4.7
	c2.2-1.1,4.5-1.7,7-1.7c5,0,9.2,2.1,12.5,6.3C287.8,271.3,289.4,276.9,289.4,283.9z"/>
</svg>
