<svg id="Layer_1" data-name="Layer 1" xmlns="http://www.w3.org/2000/svg" xmlns:xlink="http://www.w3.org/1999/xlink" viewBox="0 0 1280 147.24"><defs><style>.cls-1{fill:url(#linear-gradient);}.cls-2{fill:url(#linear-gradient-2);}</style><linearGradient id="linear-gradient" x1="858.39" y1="879.07" x2="869.47" y2="1178.07" gradientTransform="translate(1280 1900.76) rotate(180)" gradientUnits="userSpaceOnUse"><stop offset="0" stop-color="#a8272d"/><stop offset="0.03" stop-color="#a0242a"/><stop offset="0.22" stop-color="#76171b"/><stop offset="0.39" stop-color="#550d0f"/><stop offset="0.56" stop-color="#3e0607"/><stop offset="0.72" stop-color="#300202"/><stop offset="0.86" stop-color="#2b0000"/></linearGradient><linearGradient id="linear-gradient-2" x1="640.01" y1="877.66" x2="640" y2="1010.87" gradientTransform="translate(1280 1900.76) rotate(180)" gradientUnits="userSpaceOnUse"><stop offset="0" stop-color="#7d272d"/><stop offset="0.23" stop-color="#9c171a"/><stop offset="0.46" stop-color="#b30a0c"/><stop offset="0.68" stop-color="#c10303"/><stop offset="0.86" stop-color="#c60000"/></linearGradient></defs><title>wave2</title><path class="cls-1" d="M0,993c345-39.67,607.57-35.1,791-21.69,16.91,1.24,33.34,2.57,49.41,4-177.77,22.12-250.77,51.06-476.86,48.56C281.72,1022.94,121.8,1021.17,0,993Z" transform="translate(0 -876.76)"/><path class="cls-2" d="M0,1003V876.76H1280V1008c-66.37,16.13-167.8,16.38-244.44,15.92l-13-.08c-191.92-1.25-287.27-26.4-419.89-42.14-11-1.3-22.17-2.54-33.71-3.69C443.85,965.47,264.75,961.21,29.37,998.2Q14.84,1000.48,0,1003Z" transform="translate(0 -876.76)"/></svg>